<?xml version="1.0" encoding="utf-8"?>
<!-- Generator: Adobe Illustrator 13.0.2, SVG Export Plug-In . SVG Version: 6.00 Build 14948)  -->
<!DOCTYPE svg PUBLIC "-//W3C//DTD SVG 1.1//EN" "http://www.w3.org/Graphics/SVG/1.1/DTD/svg11.dtd">
<svg version="1.1" id="Layer_1" xmlns="http://www.w3.org/2000/svg" xmlns:xlink="http://www.w3.org/1999/xlink" x="0px" y="0px"
	 width="720px" height="274px" viewBox="0 0 143.932 54.715" enable-background="new 0 0 143.932 54.715"
	 xml:space="preserve">
<g>
	<g>
		<polyline fill="#D33623" points="30.014,16.584 19.075,20.146 19.089,31.689 12.296,22.351 1.314,25.923 8.107,16.584 
			1.357,7.288 12.296,10.828 19.061,1.538 19.075,13.027 		"/>
		<polygon fill="none" stroke="#D33623" stroke-width="1.0027" points="30.014,16.584 19.075,20.146 19.089,31.689 12.296,22.351 
			1.314,25.923 8.107,16.584 1.357,7.288 12.296,10.828 19.061,1.538 19.075,13.027 		"/>
		<path fill="#183C8B" d="M33.194,35.388c0-1.247,0-4.13-0.374-5.187c-0.519-1.323-2.116-1.323-3.368-1.323v-1.051H48.84v5.887
			h-0.893c-0.748-4.562-2.777-4.836-6.908-4.836h-2.807c-0.591,0-0.864-0.039-0.979,0.152c-0.071,0.159-0.028,0.586-0.028,1.444
			v9.241c5.34,0.235,6.117-1.986,6.348-4.793h0.906c-0.043,1.757-0.086,3.551-0.158,5.307c0.072,1.598,0.115,3.234,0.158,4.831
			h-0.906c-0.548-4.092-2.605-4.289-6.348-4.289v6.396c0,1.171,0,3.004,0.69,3.939c1.022,1.368,3.44,1.439,4.995,1.406
			c4.059-0.082,6.707-0.586,7.211-5.23h0.906l-0.359,6.281H29.452v-0.897c1.252,0,2.85,0,3.368-1.324
			c0.374-1.056,0.374-3.939,0.374-5.187 M85.096,38.78h-0.691c-0.229-3.628-2.59-6.254-6.347-6.254
			c-6.318,0-7.687,5.832-7.687,10.953c0,4.864,1.886,9.63,7.398,9.63c3.238,0,5.412-1.521,5.412-4.858
			c0-2.178-0.82-2.594-2.793-2.758v-0.75h8.492v0.75c-1.756-0.033-2.015,0.843-2.015,2.462v3.436c-2.36,0-2.562,0.263-4.562,1.362
			c-1.655,0.843-3.239,1.231-5.096,1.231c-6.318,0-10.881-4.147-10.881-10.564c0-6.615,4.562-11.643,11.342-11.643
			c2.389,0,4.793,0.585,6.735,2.046l0.691-1.461h0.346L85.096,38.78z M93.832,42.966c0-6.451,5.643-11.188,11.903-11.188
			c6.188,0,11.63,4.541,11.63,10.958c0,6.647-5.211,11.249-11.76,11.249C99.287,53.984,93.832,49.481,93.832,42.966z M97.891,42.966
			c0,5.088,2.001,10.144,7.902,10.144c5.771,0,7.527-5.411,7.527-10.242c0-4.864-2.015-10.215-7.715-10.215
			C99.992,32.652,97.891,38.167,97.891,42.966z M124.69,36.898c-0.835-2.074-1.223-3.885-3.915-3.983v-0.744
			c1.526,0.033,3.037,0.093,4.563,0.126c1.597-0.033,3.181-0.093,4.764-0.126v0.744c-0.936,0-2.519,0-2.519,1.324
			c0,1.138,1.942,6.101,2.461,7.457l3.311,8.239l3.08-7.522c0.575-1.592,2.433-6.483,2.433-7.911c0-1.62-1.31-1.587-2.533-1.587
			v-0.744c1.224,0.033,2.461,0.093,3.698,0.126c1.123-0.033,2.26-0.093,3.397-0.126v0.744c-2.821-0.033-3.368,2.725-4.218,4.924
			l-6.577,16.375h-0.964L124.69,36.898z M59.231,41.27h-3.828v3.835h3.828V41.27z"/>
		<path fill="none" stroke="#183C8B" stroke-width="1.0027" d="M33.194,35.388c0-1.247,0-4.13-0.374-5.187
			c-0.519-1.323-2.116-1.323-3.368-1.323v-1.051H48.84v5.887h-0.893c-0.748-4.562-2.777-4.836-6.908-4.836h-2.807
			c-0.591,0-0.864-0.039-0.979,0.152c-0.071,0.159-0.028,0.586-0.028,1.444v9.241c5.34,0.235,6.117-1.986,6.348-4.793h0.906
			c-0.043,1.756-0.086,3.551-0.158,5.307c0.072,1.598,0.115,3.234,0.158,4.831h-0.906c-0.548-4.092-2.605-4.289-6.348-4.289v6.396
			c0,1.171,0,3.004,0.69,3.939c1.022,1.368,3.44,1.438,4.995,1.406c4.059-0.082,6.707-0.586,7.211-5.23h0.906l-0.359,6.281H29.452
			v-0.897c1.252,0,2.85,0,3.368-1.324c0.374-1.056,0.374-3.939,0.374-5.187V35.388z M85.096,38.78h-0.691
			c-0.229-3.628-2.59-6.254-6.347-6.254c-6.318,0-7.687,5.832-7.687,10.953c0,4.864,1.886,9.63,7.398,9.63
			c3.238,0,5.412-1.521,5.412-4.858c0-2.178-0.82-2.594-2.793-2.758v-0.75h8.492v0.75c-1.756-0.033-2.015,0.843-2.015,2.462v3.436
			c-2.36,0-2.562,0.263-4.562,1.362c-1.655,0.843-3.239,1.231-5.096,1.231c-6.318,0-10.881-4.147-10.881-10.564
			c0-6.615,4.562-11.643,11.342-11.643c2.389,0,4.793,0.585,6.735,2.046l0.691-1.461h0.346L85.096,38.78z M93.832,42.966
			c0-6.451,5.643-11.188,11.903-11.188c6.188,0,11.63,4.541,11.63,10.958c0,6.647-5.211,11.249-11.76,11.249
			C99.287,53.984,93.832,49.481,93.832,42.966z M97.891,42.966c0,5.088,2.001,10.144,7.902,10.144c5.771,0,7.527-5.411,7.527-10.242
			c0-4.864-2.015-10.215-7.715-10.215C99.992,32.652,97.891,38.167,97.891,42.966z M124.69,36.898
			c-0.835-2.074-1.223-3.885-3.915-3.983v-0.744c1.526,0.033,3.037,0.093,4.563,0.126c1.597-0.033,3.181-0.093,4.764-0.126v0.744
			c-0.936,0-2.519,0-2.519,1.324c0,1.138,1.942,6.101,2.461,7.457l3.311,8.239l3.08-7.522c0.575-1.592,2.433-6.483,2.433-7.911
			c0-1.62-1.31-1.587-2.533-1.587v-0.744c1.224,0.033,2.461,0.093,3.698,0.126c1.123-0.033,2.26-0.093,3.397-0.126v0.744
			c-2.821-0.033-3.368,2.725-4.218,4.924l-6.577,16.375h-0.964L124.69,36.898z M59.231,41.27h-3.828v3.835h3.828V41.27z"/>
	</g>
</g>
</svg>
