<?xml version="1.0" encoding="UTF-8" standalone="no"?>
<svg
   xmlns:dc="http://purl.org/dc/elements/1.1/"
   xmlns:cc="http://creativecommons.org/ns#"
   xmlns:rdf="http://www.w3.org/1999/02/22-rdf-syntax-ns#"
   xmlns:svg="http://www.w3.org/2000/svg"
   xmlns="http://www.w3.org/2000/svg"
   xmlns:sodipodi="http://sodipodi.sourceforge.net/DTD/sodipodi-0.dtd"
   xmlns:inkscape="http://www.inkscape.org/namespaces/inkscape"
   version="1.1"
   id="Layer_1"
   x="0px"
   y="0px"
   width="720"
   height="340"
   viewBox="0 0 143.932 67.894541"
   enable-background="new 0 0 143.932 54.715"
   xml:space="preserve"
   inkscape:version="0.48.4 r9939"
   sodipodi:docname="egovlogo.svg"><metadata
   id="metadata2998"><rdf:RDF><cc:Work
       rdf:about=""><dc:format>image/svg+xml</dc:format><dc:type
         rdf:resource="http://purl.org/dc/dcmitype/StillImage" /></cc:Work></rdf:RDF></metadata><defs
   id="defs2996" /><sodipodi:namedview
   pagecolor="#ffffff"
   bordercolor="#666666"
   borderopacity="1"
   objecttolerance="10"
   gridtolerance="10"
   guidetolerance="10"
   inkscape:pageopacity="0"
   inkscape:pageshadow="2"
   inkscape:window-width="1012"
   inkscape:window-height="618"
   id="namedview2994"
   showgrid="false"
   inkscape:zoom="0.25"
   inkscape:cx="235.86127"
   inkscape:cy="193.33871"
   inkscape:window-x="77"
   inkscape:window-y="0"
   inkscape:window-maximized="0"
   inkscape:current-layer="Layer_1"
   inkscape:snap-center="true" />
<path
   sodipodi:type="arc"
   style="fill:#d40000;fill-opacity:1;fill-rule:nonzero;stroke:#000000;stroke-width:0;stroke-linecap:round;stroke-miterlimit:4;stroke-opacity:1;stroke-dasharray:none"
   id="path5238"
   sodipodi:cx="77.781746"
   sodipodi:cy="73.888779"
   sodipodi:rx="55.154327"
   sodipodi:ry="55.154327"
   d="m 132.93607,73.888779 a 55.154327,55.154327 0 1 1 -110.308651,0 55.154327,55.154327 0 1 1 110.308651,0 z"
   transform="matrix(0.34408793,0,0,0.34408793,-5.12462,-2.834035)" /><g
   id="g2986"
   transform="matrix(0.83279332,0,0,0.93393385,24.071504,16.803427)">
	<g
   id="g2988">
		<path
   d="m 33.194,35.388 c 0,-1.247 0,-4.13 -0.374,-5.187 -0.519,-1.323 -2.116,-1.323 -3.368,-1.323 V 27.827 H 48.84 v 5.887 H 47.947 C 47.199,29.152 45.17,28.878 41.039,28.878 h -2.807 c -0.591,0 -0.864,-0.039 -0.979,0.152 -0.071,0.159 -0.028,0.586 -0.028,1.444 v 9.241 c 5.34,0.235 6.117,-1.986 6.348,-4.793 h 0.906 c -0.043,1.757 -0.086,3.551 -0.158,5.307 0.072,1.598 0.115,3.234 0.158,4.831 h -0.906 c -0.548,-4.092 -2.605,-4.289 -6.348,-4.289 v 6.396 c 0,1.171 0,3.004 0.69,3.939 1.022,1.368 3.44,1.439 4.995,1.406 4.059,-0.082 6.707,-0.586 7.211,-5.23 h 0.906 l -0.359,6.281 H 29.452 v -0.897 c 1.252,0 2.85,0 3.368,-1.324 0.374,-1.056 0.374,-3.939 0.374,-5.187 M 85.096,38.78 h -0.691 c -0.229,-3.628 -2.59,-6.254 -6.347,-6.254 -6.318,0 -7.687,5.832 -7.687,10.953 0,4.864 1.886,9.63 7.398,9.63 3.238,0 5.412,-1.521 5.412,-4.858 0,-2.178 -0.82,-2.594 -2.793,-2.758 v -0.75 h 8.492 v 0.75 c -1.756,-0.033 -2.015,0.843 -2.015,2.462 v 3.436 c -2.36,0 -2.562,0.263 -4.562,1.362 -1.655,0.843 -3.239,1.231 -5.096,1.231 -6.318,0 -10.881,-4.147 -10.881,-10.564 0,-6.615 4.562,-11.643 11.342,-11.643 2.389,0 4.793,0.585 6.735,2.046 l 0.691,-1.461 h 0.346 l -0.344,6.418 z m 8.736,4.186 c 0,-6.451 5.643,-11.188 11.903,-11.188 6.188,0 11.63,4.541 11.63,10.958 0,6.647 -5.211,11.249 -11.76,11.249 C 99.287,53.984 93.832,49.481 93.832,42.966 z m 4.059,0 c 0,5.088 2.001,10.144 7.902,10.144 5.771,0 7.527,-5.411 7.527,-10.242 0,-4.864 -2.015,-10.215 -7.715,-10.215 -5.613,-10e-4 -7.714,5.514 -7.714,10.313 z m 26.799,-6.068 c -0.835,-2.074 -1.223,-3.885 -3.915,-3.983 v -0.744 c 1.526,0.033 3.037,0.093 4.563,0.126 1.597,-0.033 3.181,-0.093 4.764,-0.126 v 0.744 c -0.936,0 -2.519,0 -2.519,1.324 0,1.138 1.942,6.101 2.461,7.457 l 3.311,8.239 3.08,-7.522 c 0.575,-1.592 2.433,-6.483 2.433,-7.911 0,-1.62 -1.31,-1.587 -2.533,-1.587 v -0.744 c 1.224,0.033 2.461,0.093 3.698,0.126 1.123,-0.033 2.26,-0.093 3.397,-0.126 v 0.744 c -2.821,-0.033 -3.368,2.725 -4.218,4.924 l -6.577,16.375 h -0.964 L 124.69,36.898 z M 59.231,41.27 h -3.828 v 3.835 h 3.828 V 41.27 z"
   id="path2990"
   inkscape:connector-curvature="0"
   style="fill:#183c8b" />
		<path
   d="m 33.194,35.388 c 0,-1.247 0,-4.13 -0.374,-5.187 -0.519,-1.323 -2.116,-1.323 -3.368,-1.323 V 27.827 H 48.84 v 5.887 H 47.947 C 47.199,29.152 45.17,28.878 41.039,28.878 h -2.807 c -0.591,0 -0.864,-0.039 -0.979,0.152 -0.071,0.159 -0.028,0.586 -0.028,1.444 v 9.241 c 5.34,0.235 6.117,-1.986 6.348,-4.793 h 0.906 c -0.043,1.756 -0.086,3.551 -0.158,5.307 0.072,1.598 0.115,3.234 0.158,4.831 h -0.906 c -0.548,-4.092 -2.605,-4.289 -6.348,-4.289 v 6.396 c 0,1.171 0,3.004 0.69,3.939 1.022,1.368 3.44,1.438 4.995,1.406 4.059,-0.082 6.707,-0.586 7.211,-5.23 h 0.906 l -0.359,6.281 H 29.452 v -0.897 c 1.252,0 2.85,0 3.368,-1.324 0.374,-1.056 0.374,-3.939 0.374,-5.187 V 35.388 z m 51.902,3.392 h -0.691 c -0.229,-3.628 -2.59,-6.254 -6.347,-6.254 -6.318,0 -7.687,5.832 -7.687,10.953 0,4.864 1.886,9.63 7.398,9.63 3.238,0 5.412,-1.521 5.412,-4.858 0,-2.178 -0.82,-2.594 -2.793,-2.758 v -0.75 h 8.492 v 0.75 c -1.756,-0.033 -2.015,0.843 -2.015,2.462 v 3.436 c -2.36,0 -2.562,0.263 -4.562,1.362 -1.655,0.843 -3.239,1.231 -5.096,1.231 -6.318,0 -10.881,-4.147 -10.881,-10.564 0,-6.615 4.562,-11.643 11.342,-11.643 2.389,0 4.793,0.585 6.735,2.046 l 0.691,-1.461 h 0.346 l -0.344,6.418 z m 8.736,4.186 c 0,-6.451 5.643,-11.188 11.903,-11.188 6.188,0 11.63,4.541 11.63,10.958 0,6.647 -5.211,11.249 -11.76,11.249 C 99.287,53.984 93.832,49.481 93.832,42.966 z m 4.059,0 c 0,5.088 2.001,10.144 7.902,10.144 5.771,0 7.527,-5.411 7.527,-10.242 0,-4.864 -2.015,-10.215 -7.715,-10.215 -5.613,-10e-4 -7.714,5.514 -7.714,10.313 z m 26.799,-6.068 c -0.835,-2.074 -1.223,-3.885 -3.915,-3.983 v -0.744 c 1.526,0.033 3.037,0.093 4.563,0.126 1.597,-0.033 3.181,-0.093 4.764,-0.126 v 0.744 c -0.936,0 -2.519,0 -2.519,1.324 0,1.138 1.942,6.101 2.461,7.457 l 3.311,8.239 3.08,-7.522 c 0.575,-1.592 2.433,-6.483 2.433,-7.911 0,-1.62 -1.31,-1.587 -2.533,-1.587 v -0.744 c 1.224,0.033 2.461,0.093 3.698,0.126 1.123,-0.033 2.26,-0.093 3.397,-0.126 v 0.744 c -2.821,-0.033 -3.368,2.725 -4.218,4.924 l -6.577,16.375 h -0.964 L 124.69,36.898 z M 59.231,41.27 h -3.828 v 3.835 h 3.828 V 41.27 z"
   id="path2992"
   inkscape:connector-curvature="0"
   style="fill:none;stroke:#183c8b;stroke-width:1.00269997" />
	</g>
</g>
<path
   sodipodi:type="arc"
   style="fill:#ffff00;fill-opacity:1;fill-rule:nonzero;stroke:#ffffff;stroke-width:0;stroke-linecap:round;stroke-miterlimit:4;stroke-opacity:1;stroke-dasharray:none"
   id="path3778"
   sodipodi:cx="76.039604"
   sodipodi:cy="83.900993"
   sodipodi:rx="54.653465"
   sodipodi:ry="54.653465"
   d="m 130.69307,83.900993 a 54.653465,54.653465 0 1 1 -109.306931,0 54.653465,54.653465 0 1 1 109.306931,0 z"
   transform="matrix(0.28914085,0,0,0.28914085,-0.24442675,-1.5174223)" /><path
   sodipodi:type="star"
   style="fill:#89a02c;fill-opacity:1;fill-rule:nonzero;stroke:#000000;stroke-width:0;stroke-linecap:round;stroke-miterlimit:4;stroke-opacity:1;stroke-dasharray:none"
   id="path3782"
   sodipodi:sides="5"
   sodipodi:cx="49.90099"
   sodipodi:cy="34"
   sodipodi:r1="40.168835"
   sodipodi:r2="61.703091"
   sodipodi:arg1="1.1989798"
   sodipodi:arg2="-0.19587789"
   inkscape:flatsided="false"
   inkscape:rounded="0"
   inkscape:randomized="0"
   d="M 64.494666,71.424055 110.42414,21.990869 18.818292,59.44408 80.025035,87.849914 16.09715,12.301251 7.9955198,79.290209 60.091765,-4.8546442 -6.1220609,8.1409741 90.003075,31.685258 57.18231,-27.271966 z"
   transform="matrix(0.37865487,0,0,0.36988123,2.7346137,10.357357)"
   inkscape:transform-center-x="4.2023241"
   inkscape:transform-center-y="-2.2071828" /></svg>